<svg xmlns="http://www.w3.org/2000/svg" viewBox="0 0 275.11 140.78"><defs><style>.cls-1{fill:#231f20;}</style></defs><g id="Layer_2" data-name="Layer 2"><g id="Layer_1-2" data-name="Layer 1"><rect class="cls-1" x="59.17" y="32.56" width="22.13" height="59.02" rx="2"/><path class="cls-1" d="M153.75,7.39V135.86a4.92,4.92,0,0,1-4.92,4.92H99.64a4.91,4.91,0,0,1-4.91-4.92v-12.3a4.91,4.91,0,0,1,4.91-4.91h32V91.15H94.73a4.92,4.92,0,0,1-4.92-4.92V29.82a4.92,4.92,0,0,1,4.92-4.92H107a4.92,4.92,0,0,1,4.92,4.92V69h19.67V7.39a4.92,4.92,0,0,1,4.92-4.92h12.3A4.92,4.92,0,0,1,153.75,7.39Z"/><path class="cls-1" d="M50.66,71.86V84.15a4.92,4.92,0,0,1-4.92,4.92H4.92A4.92,4.92,0,0,1,0,84.15V4.92A4.92,4.92,0,0,1,4.92,0H17.21a4.92,4.92,0,0,1,4.92,4.92v62H45.74A4.92,4.92,0,0,1,50.66,71.86Z"/><path class="cls-1" d="M183.26,24.61V34.74h22.23a4.92,4.92,0,0,1,4.92,4.92V52a4.92,4.92,0,0,1-4.92,4.92H183.26V86.68a4.92,4.92,0,0,1-4.92,4.91H166a4.92,4.92,0,0,1-4.92-4.91V7.39A4.92,4.92,0,0,1,166,2.47h39.45a4.92,4.92,0,0,1,4.92,4.92v12.3a4.93,4.93,0,0,1-4.92,4.92Z"/><path class="cls-1" d="M239.13,24.61V36.46h21.22a4.92,4.92,0,0,1,4.92,4.92V53.67a4.92,4.92,0,0,1-4.92,4.92H239.13V69.46h31.06a4.92,4.92,0,0,1,4.92,4.92v12.3a4.91,4.91,0,0,1-4.92,4.91H221.92A4.91,4.91,0,0,1,217,86.68V7.39a4.92,4.92,0,0,1,4.92-4.92h48.27a4.92,4.92,0,0,1,4.92,4.92v12.3a4.92,4.92,0,0,1-4.92,4.92Z"/><rect class="cls-1" x="59.28" y="2.52" width="22.02" height="22.02" rx="2"/></g></g></svg>